<?xml version="1.0" encoding="UTF-8"?><svg version="1.1" width="21px" height="22px" viewBox="0 0 21.0 22.0" xmlns="http://www.w3.org/2000/svg" xmlns:xlink="http://www.w3.org/1999/xlink"><defs><clipPath id="i0"><path d="M428,0 L428,926 L0,926 L0,0 L428,0 Z"></path></clipPath><filter id="i1" x="-16.6007905%" y="-15%" filterUnits="userSpaceOnUse" width="122.134387%" height="120%"><feDropShadow stdDeviation="0.5" dx="0" dy="0" flood-color="rgba(0, 0, 0, 0.2)"></feDropShadow></filter><clipPath id="i2"><path d="M4.82138852,0 C7.47994036,0 9.64285714,2.27776493 9.64285714,5.07748252 C9.64285714,7.26929565 6.43849,11.5620357 4.82138852,13.5 C3.20428704,11.562584 0,7.27077176 0,5.07748252 C0,2.27776493 2.16283669,0 4.82138852,0 Z M4.82138852,2.1799199 C3.45939332,2.1799199 2.351343,3.34680629 2.351343,4.78112172 C2.351343,6.21543715 3.45939332,7.38232354 4.82138852,7.38232354 C6.18338372,7.38232354 7.29143404,6.21543715 7.29143404,4.78112172 C7.29143404,3.34680629 6.18338372,2.1799199 4.82138852,2.1799199 Z"></path></clipPath><clipPath id="i3"><path d="M8.03567367,0 C11.2710008,0 13.9031657,2.69581724 13.9031657,6.00947536 C13.9031657,7.37971283 12.9665028,9.38697773 11.1193061,11.9754584 C10.9696025,12.1852205 10.8202648,12.3896553 10.6728369,12.5881385 L15.7423978,14.3739462 C15.9393205,14.4433259 16.0714286,14.6331938 16.0714286,14.8465352 C16.0714286,15.0598349 15.9389547,15.249578 15.7419508,15.3187079 L8.18082594,17.9730306 C8.12958378,17.9910102 8.07610663,18 8.02267011,18 C7.96911169,18 7.91551262,17.990927 7.86410792,17.9728641 L0.329030861,15.3185415 C0.132108156,15.2491618 0,15.0592939 0,14.8459941 C0,14.6326528 0.132473881,14.4429513 0.329477859,14.3737797 L5.40216774,12.5930079 C5.25360203,12.393068 5.10304515,12.1869685 4.95208192,11.9755 C3.10488517,9.38697773 2.16822229,7.37975445 2.16822229,6.00951698 C2.16822229,2.69581724 4.80034659,0 8.03567367,0 Z M10.0384255,13.4209022 C9.1411797,14.5702652 8.43565514,15.3618257 8.39534409,15.4069412 C8.30293753,15.5102407 8.1724549,15.569049 8.03567367,15.569049 C7.89885181,15.569049 7.76840982,15.5102407 7.67600325,15.4069412 C7.63577348,15.3619089 6.93224009,14.5726791 6.03694479,13.4260214 L1.98917948,14.8470346 L8.02295456,16.9725404 L14.0822085,14.8454115 Z M8.03567367,0.998867026 C5.33808455,0.998867026 3.14344887,3.24665079 3.14344887,6.00951698 C3.14344887,8.17393697 6.39478658,12.409258 8.03563304,14.3211727 C9.67647949,12.408717 12.9278985,8.17248029 12.9278985,6.00951698 C12.9278985,3.24665079 10.7332628,0.998867026 8.03567367,0.998867026 Z"></path></clipPath><clipPath id="i4"><path d="M2.89285714,0 C4.48799275,0 5.78571429,1.29772154 5.78571429,2.89285714 C5.78571429,4.48799275 4.48799275,5.78571429 2.89285714,5.78571429 C1.29772154,5.78571429 0,4.48799275 0,2.89285714 C0,1.29772154 1.29772154,0 2.89285714,0 Z M2.89285714,1.28571429 C2.00664009,1.28571429 1.28571429,2.0067254 1.28571429,2.89285714 C1.28571429,3.7790742 2.00664009,4.5 2.89285714,4.5 C3.7790742,4.5 4.5,3.77903154 4.5,2.89285714 C4.5,2.0067254 3.7790742,1.28571429 2.89285714,1.28571429 Z"></path></clipPath></defs><g transform="translate(-23.0 -28.0)"><g clip-path="url(#i0)"><g transform="translate(25.0 30.0)"><g filter="url(#i1)"><g transform="translate(3.2142857142857135 0.6428571428571432)"><g clip-path="url(#i2)"><polygon points="0,0 9.64285714,0 9.64285714,13.5 0,13.5 0,0" stroke="none" fill="#FFFFFF"></polygon></g></g><g clip-path="url(#i3)"><polygon points="0,0 16.0714286,0 16.0714286,18 0,18 0,0" stroke="none" fill="#263138"></polygon></g><g transform="translate(5.142857142857144 2.5714285714285725)"><g clip-path="url(#i4)"><polygon points="0,0 5.78571429,0 5.78571429,5.78571429 0,5.78571429 0,0" stroke="none" fill="#263138"></polygon></g></g></g></g></g></g></svg>